<?xml version="1.0" encoding="utf-8" standalone="no"?>
<!DOCTYPE svg PUBLIC "-//W3C//DTD SVG 1.1//EN"
  "http://www.w3.org/Graphics/SVG/1.1/DTD/svg11.dtd">
<svg xmlns:xlink="http://www.w3.org/1999/xlink" width="1175.575pt" height="862.678125pt" viewBox="0 0 1175.575 862.678125" xmlns="http://www.w3.org/2000/svg" version="1.1">
 <metadata>
  <rdf:RDF xmlns:dc="http://purl.org/dc/elements/1.1/" xmlns:cc="http://creativecommons.org/ns#" xmlns:rdf="http://www.w3.org/1999/02/22-rdf-syntax-ns#">
   <cc:Work>
    <dc:type rdf:resource="http://purl.org/dc/dcmitype/StillImage"/>
    <dc:date>2025-11-04T15:11:24.270727</dc:date>
    <dc:format>image/svg+xml</dc:format>
    <dc:creator>
     <cc:Agent>
      <dc:title>Matplotlib v3.10.3, https://matplotlib.org/</dc:title>
     </cc:Agent>
    </dc:creator>
   </cc:Work>
  </rdf:RDF>
 </metadata>
 <defs>
  <style type="text/css">*{stroke-linejoin: round; stroke-linecap: butt}</style>
 </defs>
 <g id="figure_1">
  <g id="patch_1">
   <path d="M 0 862.678125 
L 1175.575 862.678125 
L 1175.575 0 
L 0 0 
z
" style="fill: #ffffff"/>
  </g>
  <g id="axes_1">
   <g id="patch_2">
    <path d="M 52.375 838.8 
L 1168.375 838.8 
L 1168.375 7.2 
L 52.375 7.2 
z
" style="fill: #ffffff"/>
   </g>
   <g id="matplotlib.axis_1">
    <g id="xtick_1">
     <g id="line2d_1">
      <defs>
       <path id="m79afb52091" d="M 0 0 
L 0 3.5 
" style="stroke: #000000; stroke-width: 0.8"/>
      </defs>
      <g>
       <use xlink:href="#m79afb52091" x="100.31506" y="838.8" style="stroke: #000000; stroke-width: 0.8"/>
      </g>
     </g>
     <g id="text_1">
      <!-- 0 -->
      <g transform="translate(97.13381 853.398438) scale(0.1 -0.1)">
       <defs>
        <path id="DejaVuSans-30" d="M 2034 4250 
Q 1547 4250 1301 3770 
Q 1056 3291 1056 2328 
Q 1056 1369 1301 889 
Q 1547 409 2034 409 
Q 2525 409 2770 889 
Q 3016 1369 3016 2328 
Q 3016 3291 2770 3770 
Q 2525 4250 2034 4250 
z
M 2034 4750 
Q 2819 4750 3233 4129 
Q 3647 3509 3647 2328 
Q 3647 1150 3233 529 
Q 2819 -91 2034 -91 
Q 1250 -91 836 529 
Q 422 1150 422 2328 
Q 422 3509 836 4129 
Q 1250 4750 2034 4750 
z
" transform="scale(0.015625)"/>
       </defs>
       <use xlink:href="#DejaVuSans-30"/>
      </g>
     </g>
    </g>
    <g id="xtick_2">
     <g id="line2d_2">
      <g>
       <use xlink:href="#m79afb52091" x="239.675699" y="838.8" style="stroke: #000000; stroke-width: 0.8"/>
      </g>
     </g>
     <g id="text_2">
      <!-- 50 -->
      <g transform="translate(233.313199 853.398438) scale(0.1 -0.1)">
       <defs>
        <path id="DejaVuSans-35" d="M 691 4666 
L 3169 4666 
L 3169 4134 
L 1269 4134 
L 1269 2991 
Q 1406 3038 1543 3061 
Q 1681 3084 1819 3084 
Q 2600 3084 3056 2656 
Q 3513 2228 3513 1497 
Q 3513 744 3044 326 
Q 2575 -91 1722 -91 
Q 1428 -91 1123 -41 
Q 819 9 494 109 
L 494 744 
Q 775 591 1075 516 
Q 1375 441 1709 441 
Q 2250 441 2565 725 
Q 2881 1009 2881 1497 
Q 2881 1984 2565 2268 
Q 2250 2553 1709 2553 
Q 1456 2553 1204 2497 
Q 953 2441 691 2322 
L 691 4666 
z
" transform="scale(0.015625)"/>
       </defs>
       <use xlink:href="#DejaVuSans-35"/>
       <use xlink:href="#DejaVuSans-30" transform="translate(63.623047 0)"/>
      </g>
     </g>
    </g>
    <g id="xtick_3">
     <g id="line2d_3">
      <g>
       <use xlink:href="#m79afb52091" x="379.036339" y="838.8" style="stroke: #000000; stroke-width: 0.8"/>
      </g>
     </g>
     <g id="text_3">
      <!-- 100 -->
      <g transform="translate(369.492589 853.398438) scale(0.1 -0.1)">
       <defs>
        <path id="DejaVuSans-31" d="M 794 531 
L 1825 531 
L 1825 4091 
L 703 3866 
L 703 4441 
L 1819 4666 
L 2450 4666 
L 2450 531 
L 3481 531 
L 3481 0 
L 794 0 
L 794 531 
z
" transform="scale(0.015625)"/>
       </defs>
       <use xlink:href="#DejaVuSans-31"/>
       <use xlink:href="#DejaVuSans-30" transform="translate(63.623047 0)"/>
       <use xlink:href="#DejaVuSans-30" transform="translate(127.246094 0)"/>
      </g>
     </g>
    </g>
    <g id="xtick_4">
     <g id="line2d_4">
      <g>
       <use xlink:href="#m79afb52091" x="518.396978" y="838.8" style="stroke: #000000; stroke-width: 0.8"/>
      </g>
     </g>
     <g id="text_4">
      <!-- 150 -->
      <g transform="translate(508.853228 853.398438) scale(0.1 -0.1)">
       <use xlink:href="#DejaVuSans-31"/>
       <use xlink:href="#DejaVuSans-35" transform="translate(63.623047 0)"/>
       <use xlink:href="#DejaVuSans-30" transform="translate(127.246094 0)"/>
      </g>
     </g>
    </g>
    <g id="xtick_5">
     <g id="line2d_5">
      <g>
       <use xlink:href="#m79afb52091" x="657.757617" y="838.8" style="stroke: #000000; stroke-width: 0.8"/>
      </g>
     </g>
     <g id="text_5">
      <!-- 200 -->
      <g transform="translate(648.213867 853.398438) scale(0.1 -0.1)">
       <defs>
        <path id="DejaVuSans-32" d="M 1228 531 
L 3431 531 
L 3431 0 
L 469 0 
L 469 531 
Q 828 903 1448 1529 
Q 2069 2156 2228 2338 
Q 2531 2678 2651 2914 
Q 2772 3150 2772 3378 
Q 2772 3750 2511 3984 
Q 2250 4219 1831 4219 
Q 1534 4219 1204 4116 
Q 875 4013 500 3803 
L 500 4441 
Q 881 4594 1212 4672 
Q 1544 4750 1819 4750 
Q 2544 4750 2975 4387 
Q 3406 4025 3406 3419 
Q 3406 3131 3298 2873 
Q 3191 2616 2906 2266 
Q 2828 2175 2409 1742 
Q 1991 1309 1228 531 
z
" transform="scale(0.015625)"/>
       </defs>
       <use xlink:href="#DejaVuSans-32"/>
       <use xlink:href="#DejaVuSans-30" transform="translate(63.623047 0)"/>
       <use xlink:href="#DejaVuSans-30" transform="translate(127.246094 0)"/>
      </g>
     </g>
    </g>
    <g id="xtick_6">
     <g id="line2d_6">
      <g>
       <use xlink:href="#m79afb52091" x="797.118257" y="838.8" style="stroke: #000000; stroke-width: 0.8"/>
      </g>
     </g>
     <g id="text_6">
      <!-- 250 -->
      <g transform="translate(787.574507 853.398438) scale(0.1 -0.1)">
       <use xlink:href="#DejaVuSans-32"/>
       <use xlink:href="#DejaVuSans-35" transform="translate(63.623047 0)"/>
       <use xlink:href="#DejaVuSans-30" transform="translate(127.246094 0)"/>
      </g>
     </g>
    </g>
    <g id="xtick_7">
     <g id="line2d_7">
      <g>
       <use xlink:href="#m79afb52091" x="936.478896" y="838.8" style="stroke: #000000; stroke-width: 0.8"/>
      </g>
     </g>
     <g id="text_7">
      <!-- 300 -->
      <g transform="translate(926.935146 853.398438) scale(0.1 -0.1)">
       <defs>
        <path id="DejaVuSans-33" d="M 2597 2516 
Q 3050 2419 3304 2112 
Q 3559 1806 3559 1356 
Q 3559 666 3084 287 
Q 2609 -91 1734 -91 
Q 1441 -91 1130 -33 
Q 819 25 488 141 
L 488 750 
Q 750 597 1062 519 
Q 1375 441 1716 441 
Q 2309 441 2620 675 
Q 2931 909 2931 1356 
Q 2931 1769 2642 2001 
Q 2353 2234 1838 2234 
L 1294 2234 
L 1294 2753 
L 1863 2753 
Q 2328 2753 2575 2939 
Q 2822 3125 2822 3475 
Q 2822 3834 2567 4026 
Q 2313 4219 1838 4219 
Q 1578 4219 1281 4162 
Q 984 4106 628 3988 
L 628 4550 
Q 988 4650 1302 4700 
Q 1616 4750 1894 4750 
Q 2613 4750 3031 4423 
Q 3450 4097 3450 3541 
Q 3450 3153 3228 2886 
Q 3006 2619 2597 2516 
z
" transform="scale(0.015625)"/>
       </defs>
       <use xlink:href="#DejaVuSans-33"/>
       <use xlink:href="#DejaVuSans-30" transform="translate(63.623047 0)"/>
       <use xlink:href="#DejaVuSans-30" transform="translate(127.246094 0)"/>
      </g>
     </g>
    </g>
    <g id="xtick_8">
     <g id="line2d_8">
      <g>
       <use xlink:href="#m79afb52091" x="1075.839535" y="838.8" style="stroke: #000000; stroke-width: 0.8"/>
      </g>
     </g>
     <g id="text_8">
      <!-- 350 -->
      <g transform="translate(1066.295785 853.398438) scale(0.1 -0.1)">
       <use xlink:href="#DejaVuSans-33"/>
       <use xlink:href="#DejaVuSans-35" transform="translate(63.623047 0)"/>
       <use xlink:href="#DejaVuSans-30" transform="translate(127.246094 0)"/>
      </g>
     </g>
    </g>
   </g>
   <g id="matplotlib.axis_2">
    <g id="ytick_1">
     <g id="line2d_9">
      <defs>
       <path id="m1654c05f80" d="M 0 0 
L -3.5 0 
" style="stroke: #000000; stroke-width: 0.8"/>
      </defs>
      <g>
       <use xlink:href="#m1654c05f80" x="52.375" y="699.393894" style="stroke: #000000; stroke-width: 0.8"/>
      </g>
     </g>
     <g id="text_9">
      <!-- 340000 -->
      <g transform="translate(7.2 703.193113) scale(0.1 -0.1)">
       <defs>
        <path id="DejaVuSans-34" d="M 2419 4116 
L 825 1625 
L 2419 1625 
L 2419 4116 
z
M 2253 4666 
L 3047 4666 
L 3047 1625 
L 3713 1625 
L 3713 1100 
L 3047 1100 
L 3047 0 
L 2419 0 
L 2419 1100 
L 313 1100 
L 313 1709 
L 2253 4666 
z
" transform="scale(0.015625)"/>
       </defs>
       <use xlink:href="#DejaVuSans-33"/>
       <use xlink:href="#DejaVuSans-34" transform="translate(63.623047 0)"/>
       <use xlink:href="#DejaVuSans-30" transform="translate(127.246094 0)"/>
       <use xlink:href="#DejaVuSans-30" transform="translate(190.869141 0)"/>
       <use xlink:href="#DejaVuSans-30" transform="translate(254.492188 0)"/>
       <use xlink:href="#DejaVuSans-30" transform="translate(318.115234 0)"/>
      </g>
     </g>
    </g>
    <g id="ytick_2">
     <g id="line2d_10">
      <g>
       <use xlink:href="#m1654c05f80" x="52.375" y="555.524244" style="stroke: #000000; stroke-width: 0.8"/>
      </g>
     </g>
     <g id="text_10">
      <!-- 360000 -->
      <g transform="translate(7.2 559.323463) scale(0.1 -0.1)">
       <defs>
        <path id="DejaVuSans-36" d="M 2113 2584 
Q 1688 2584 1439 2293 
Q 1191 2003 1191 1497 
Q 1191 994 1439 701 
Q 1688 409 2113 409 
Q 2538 409 2786 701 
Q 3034 994 3034 1497 
Q 3034 2003 2786 2293 
Q 2538 2584 2113 2584 
z
M 3366 4563 
L 3366 3988 
Q 3128 4100 2886 4159 
Q 2644 4219 2406 4219 
Q 1781 4219 1451 3797 
Q 1122 3375 1075 2522 
Q 1259 2794 1537 2939 
Q 1816 3084 2150 3084 
Q 2853 3084 3261 2657 
Q 3669 2231 3669 1497 
Q 3669 778 3244 343 
Q 2819 -91 2113 -91 
Q 1303 -91 875 529 
Q 447 1150 447 2328 
Q 447 3434 972 4092 
Q 1497 4750 2381 4750 
Q 2619 4750 2861 4703 
Q 3103 4656 3366 4563 
z
" transform="scale(0.015625)"/>
       </defs>
       <use xlink:href="#DejaVuSans-33"/>
       <use xlink:href="#DejaVuSans-36" transform="translate(63.623047 0)"/>
       <use xlink:href="#DejaVuSans-30" transform="translate(127.246094 0)"/>
       <use xlink:href="#DejaVuSans-30" transform="translate(190.869141 0)"/>
       <use xlink:href="#DejaVuSans-30" transform="translate(254.492188 0)"/>
       <use xlink:href="#DejaVuSans-30" transform="translate(318.115234 0)"/>
      </g>
     </g>
    </g>
    <g id="ytick_3">
     <g id="line2d_11">
      <g>
       <use xlink:href="#m1654c05f80" x="52.375" y="411.654594" style="stroke: #000000; stroke-width: 0.8"/>
      </g>
     </g>
     <g id="text_11">
      <!-- 380000 -->
      <g transform="translate(7.2 415.453813) scale(0.1 -0.1)">
       <defs>
        <path id="DejaVuSans-38" d="M 2034 2216 
Q 1584 2216 1326 1975 
Q 1069 1734 1069 1313 
Q 1069 891 1326 650 
Q 1584 409 2034 409 
Q 2484 409 2743 651 
Q 3003 894 3003 1313 
Q 3003 1734 2745 1975 
Q 2488 2216 2034 2216 
z
M 1403 2484 
Q 997 2584 770 2862 
Q 544 3141 544 3541 
Q 544 4100 942 4425 
Q 1341 4750 2034 4750 
Q 2731 4750 3128 4425 
Q 3525 4100 3525 3541 
Q 3525 3141 3298 2862 
Q 3072 2584 2669 2484 
Q 3125 2378 3379 2068 
Q 3634 1759 3634 1313 
Q 3634 634 3220 271 
Q 2806 -91 2034 -91 
Q 1263 -91 848 271 
Q 434 634 434 1313 
Q 434 1759 690 2068 
Q 947 2378 1403 2484 
z
M 1172 3481 
Q 1172 3119 1398 2916 
Q 1625 2713 2034 2713 
Q 2441 2713 2670 2916 
Q 2900 3119 2900 3481 
Q 2900 3844 2670 4047 
Q 2441 4250 2034 4250 
Q 1625 4250 1398 4047 
Q 1172 3844 1172 3481 
z
" transform="scale(0.015625)"/>
       </defs>
       <use xlink:href="#DejaVuSans-33"/>
       <use xlink:href="#DejaVuSans-38" transform="translate(63.623047 0)"/>
       <use xlink:href="#DejaVuSans-30" transform="translate(127.246094 0)"/>
       <use xlink:href="#DejaVuSans-30" transform="translate(190.869141 0)"/>
       <use xlink:href="#DejaVuSans-30" transform="translate(254.492188 0)"/>
       <use xlink:href="#DejaVuSans-30" transform="translate(318.115234 0)"/>
      </g>
     </g>
    </g>
    <g id="ytick_4">
     <g id="line2d_12">
      <g>
       <use xlink:href="#m1654c05f80" x="52.375" y="267.784944" style="stroke: #000000; stroke-width: 0.8"/>
      </g>
     </g>
     <g id="text_12">
      <!-- 400000 -->
      <g transform="translate(7.2 271.584162) scale(0.1 -0.1)">
       <use xlink:href="#DejaVuSans-34"/>
       <use xlink:href="#DejaVuSans-30" transform="translate(63.623047 0)"/>
       <use xlink:href="#DejaVuSans-30" transform="translate(127.246094 0)"/>
       <use xlink:href="#DejaVuSans-30" transform="translate(190.869141 0)"/>
       <use xlink:href="#DejaVuSans-30" transform="translate(254.492188 0)"/>
       <use xlink:href="#DejaVuSans-30" transform="translate(318.115234 0)"/>
      </g>
     </g>
    </g>
    <g id="ytick_5">
     <g id="line2d_13">
      <g>
       <use xlink:href="#m1654c05f80" x="52.375" y="123.915293" style="stroke: #000000; stroke-width: 0.8"/>
      </g>
     </g>
     <g id="text_13">
      <!-- 420000 -->
      <g transform="translate(7.2 127.714512) scale(0.1 -0.1)">
       <use xlink:href="#DejaVuSans-34"/>
       <use xlink:href="#DejaVuSans-32" transform="translate(63.623047 0)"/>
       <use xlink:href="#DejaVuSans-30" transform="translate(127.246094 0)"/>
       <use xlink:href="#DejaVuSans-30" transform="translate(190.869141 0)"/>
       <use xlink:href="#DejaVuSans-30" transform="translate(254.492188 0)"/>
       <use xlink:href="#DejaVuSans-30" transform="translate(318.115234 0)"/>
      </g>
     </g>
    </g>
   </g>
   <g id="line2d_14">
    <path d="M 103.102273 160.897444 
L 105.889486 176.14138 
L 108.676698 181.59419 
L 111.463911 197.312236 
L 114.251124 221.758254 
L 117.038337 226.830366 
L 119.825549 202.405254 
L 122.612762 158.74159 
L 125.399975 129.562024 
L 128.187188 98.94768 
L 130.974401 74.855875 
L 133.761613 70.328058 
L 136.548826 77.966192 
L 139.336039 204.142383 
L 142.123252 153.992028 
L 144.910465 129.189098 
L 147.697677 131.275789 
L 150.48489 139.83082 
L 153.272103 129.623305 
L 156.059316 107.74988 
L 158.846528 92.969563 
L 161.633741 83.922597 
L 164.420954 76.056474 
L 167.208167 76.51379 
L 169.99538 64.455616 
L 172.782592 45 
L 175.569805 49.193314 
L 178.357018 70.728661 
L 181.144231 95.462181 
L 183.931444 116.618525 
L 186.718656 126.141395 
L 189.505869 128.002626 
L 192.293082 141.05817 
L 195.080295 170.89313 
L 197.867507 202.566697 
L 200.65472 236.258118 
L 203.441933 263.186577 
L 206.229146 286.559049 
L 209.016359 317.868121 
L 211.803571 340.887095 
L 214.590784 332.050245 
L 217.377997 316.019451 
L 220.16521 307.55145 
L 222.952423 305.831704 
L 225.739635 302.056776 
L 228.526848 299.16503 
L 231.314061 302.444255 
L 234.101274 313.367374 
L 236.888487 318.841947 
L 239.675699 322.317498 
L 242.462912 346.548187 
L 245.250125 374.260641 
L 248.037338 381.994547 
L 250.82455 388.191921 
L 253.611763 402.106419 
L 256.398976 412.631428 
L 259.186189 417.111202 
L 261.973402 411.721693 
L 264.760614 408.576594 
L 267.547827 407.320254 
L 270.33504 385.031518 
L 273.122253 342.655247 
L 275.909466 304.709922 
L 278.696678 274.059011 
L 281.483891 232.689063 
L 284.271104 206.343549 
L 287.058317 194.266843 
L 289.845529 185.226905 
L 292.632742 172.060636 
L 295.419955 159.893941 
L 298.207168 151.669028 
L 300.994381 148.519424 
L 303.781593 144.912061 
L 306.568806 136.972415 
L 309.356019 146.057923 
L 312.143232 161.744988 
L 314.930445 190.454791 
L 317.717657 216.402006 
L 320.50487 247.341158 
L 323.292083 275.567727 
L 326.079296 306.445456 
L 328.866508 331.458764 
L 331.653721 379.704357 
L 334.440934 418.534796 
L 337.228147 459.641882 
L 340.01536 499.101246 
L 342.802572 532.265116 
L 345.589785 561.91839 
L 351.164211 635.732695 
L 353.951424 663.051194 
L 356.738636 694.616602 
L 359.525849 710.986138 
L 362.313062 719.683814 
L 365.100275 725.581975 
L 367.887488 734.091888 
L 370.6747 728.165382 
L 373.461913 729.908722 
L 376.249126 727.751121 
L 379.036339 723.990265 
L 381.823551 727.720543 
L 384.610764 738.311203 
L 387.397977 743.629475 
L 390.18519 748.673352 
L 392.972403 752.491512 
L 395.759615 743.320561 
L 398.546828 741.298604 
L 401.334041 739.806474 
L 404.121254 739.281607 
L 406.908467 740.22841 
L 409.695679 738.337783 
L 412.482892 741.704383 
L 415.270105 745.498385 
L 418.057318 752.700851 
L 420.84453 757.080138 
L 423.631743 755.840651 
L 426.418956 752.301016 
L 429.206169 746.740297 
L 431.993382 735.309454 
L 434.780594 727.317889 
L 437.567807 739.554453 
L 440.35502 737.948095 
L 448.716658 717.314932 
L 451.503871 710.129439 
L 454.291084 704.236326 
L 457.078297 697.657419 
L 462.652722 682.100306 
L 468.227148 653.394798 
L 471.014361 644.030033 
L 473.801573 639.149632 
L 476.588786 613.85661 
L 479.375999 600.19703 
L 482.163212 590.132722 
L 484.950425 587.887238 
L 487.737637 575.366323 
L 493.312063 549.681412 
L 496.099276 537.283429 
L 498.886489 526.422758 
L 501.673701 525.382492 
L 504.460914 538.122426 
L 507.248127 539.864694 
L 510.03534 534.185342 
L 512.822552 521.749548 
L 515.609765 502.815557 
L 518.396978 480.426655 
L 521.184191 463.775937 
L 523.971404 443.859058 
L 526.758616 435.918872 
L 529.545829 428.67101 
L 532.333042 423.235748 
L 535.120255 413.806284 
L 537.907468 402.245131 
L 540.69468 383.516901 
L 543.481893 359.880223 
L 546.269106 350.40048 
L 549.056319 336.113404 
L 551.843531 317.685492 
L 554.630744 308.256108 
L 557.417957 308.004679 
L 560.20517 303.034384 
L 562.992383 288.930281 
L 565.779595 268.695649 
L 568.566808 250.523168 
L 571.354021 224.057202 
L 574.141234 210.321867 
L 576.928447 206.882889 
L 579.715659 193.730986 
L 582.502872 165.138064 
L 585.290085 135.0418 
L 588.077298 121.891303 
L 590.86451 119.470322 
L 593.651723 112.531623 
L 599.226149 80.040244 
L 602.013362 69.474469 
L 604.800574 66.442802 
L 607.587787 64.617115 
L 610.375 76.3623 
L 613.162213 80.791818 
L 615.949426 79.668641 
L 618.736638 89.729818 
L 621.523851 107.884262 
L 624.311064 127.338499 
L 627.098277 138.52222 
L 629.88549 166.992449 
L 632.672702 197.231474 
L 635.459915 216.716037 
L 638.247128 229.706487 
L 641.034341 240.677065 
L 643.821553 244.025016 
L 646.608766 246.697467 
L 649.395979 237.378074 
L 652.183192 219.723709 
L 654.970405 196.903681 
L 657.757617 172.036376 
L 660.54483 163.591394 
L 663.332043 168.211697 
L 666.119256 181.781773 
L 668.906469 177.739851 
L 671.693681 169.646657 
L 674.480894 176.627492 
L 677.268107 193.629281 
L 682.842532 211.537299 
L 685.629745 218.523049 
L 688.416958 237.132025 
L 691.204171 268.151734 
L 696.778596 342.932179 
L 699.565809 359.919923 
L 702.353022 360.188109 
L 705.140235 350.519712 
L 707.927448 346.872567 
L 710.71466 349.024717 
L 713.501873 343.18501 
L 716.289086 329.720847 
L 719.076299 328.239634 
L 721.863511 332.984926 
L 724.650724 335.732169 
L 727.437937 336.461 
L 730.22515 341.305759 
L 735.799575 365.096717 
L 738.586788 373.364254 
L 741.374001 379.084098 
L 744.161214 382.021612 
L 746.948427 380.962753 
L 749.735639 388.650153 
L 752.522852 404.864159 
L 763.671703 475.56512 
L 766.458916 488.27243 
L 769.246129 484.274317 
L 772.033342 471.81907 
L 774.820554 465.877391 
L 777.607767 475.514783 
L 780.39498 491.288009 
L 783.182193 508.610316 
L 785.969406 512.766178 
L 788.756618 507.820685 
L 791.543831 507.636948 
L 794.331044 511.291751 
L 797.118257 518.50602 
L 799.90547 523.318914 
L 802.692682 523.955347 
L 805.479895 527.544224 
L 811.054321 551.566192 
L 813.841533 556.589619 
L 816.628746 557.34095 
L 819.415959 561.228686 
L 822.203172 571.579765 
L 827.777597 606.703234 
L 830.56481 619.488119 
L 833.352023 630.622119 
L 836.139236 635.135544 
L 838.926449 635.66668 
L 841.713661 641.02065 
L 847.288087 655.158116 
L 850.0753 659.436935 
L 852.862512 665.168993 
L 855.649725 668.968651 
L 858.436938 670.937563 
L 861.224151 667.097039 
L 864.011364 667.646713 
L 866.798576 669.585575 
L 869.585789 673.162681 
L 872.373002 680.455135 
L 875.160215 690.461426 
L 877.947428 705.927781 
L 880.73464 723.343895 
L 883.521853 736.617439 
L 886.309066 741.835007 
L 889.096279 751.847442 
L 891.883492 762.970082 
L 894.670704 769.138195 
L 897.457917 776.665644 
L 900.24513 782.276675 
L 903.032343 784.330514 
L 908.606768 796.366459 
L 911.393981 799.842516 
L 914.181194 801 
L 916.968407 800.102955 
L 919.755619 790.827084 
L 922.542832 777.598663 
L 925.330045 773.678343 
L 928.117258 768.450957 
L 930.904471 759.437763 
L 933.691683 751.645605 
L 936.478896 733.719224 
L 939.266109 710.682242 
L 942.053322 684.268919 
L 944.840534 662.457275 
L 947.627747 652.156144 
L 953.202173 640.178337 
L 955.989386 635.433925 
L 958.776598 634.702024 
L 961.563811 643.613227 
L 964.351024 645.070652 
L 967.138237 634.137169 
L 969.92545 624.968903 
L 972.712662 621.636148 
L 975.499875 627.016747 
L 978.287088 636.124334 
L 981.074301 649.727398 
L 983.861513 659.505806 
L 986.648726 664.804691 
L 989.435939 654.143323 
L 992.223152 641.709962 
L 995.010365 627.397304 
L 997.797577 614.884228 
L 1000.58479 591.760046 
L 1003.372003 576.865319 
L 1006.159216 571.398796 
L 1008.946429 569.645096 
L 1011.733641 562.780484 
L 1014.520854 539.732479 
L 1017.308067 523.44945 
L 1020.09528 499.000287 
L 1022.882493 461.638613 
L 1025.669705 415.468549 
L 1028.456918 388.960257 
L 1031.244131 370.516226 
L 1034.031344 362.525194 
L 1036.818556 354.196195 
L 1039.605769 356.554394 
L 1042.392982 353.281306 
L 1045.180195 337.64023 
L 1050.75462 280.695527 
L 1053.541833 285.618912 
L 1056.329046 280.431974 
L 1059.116259 286.733965 
L 1064.690684 284.961337 
L 1067.477897 286.069326 
L 1070.26511 276.662337 
L 1073.052323 258.741134 
L 1075.839535 242.653807 
L 1078.626748 239.001927 
L 1081.413961 238.026322 
L 1084.201174 241.92676 
L 1086.988387 248.680586 
L 1089.775599 249.664116 
L 1092.562812 226.946238 
L 1095.350025 215.346046 
L 1098.137238 217.948878 
L 1100.924451 263.308586 
L 1103.711663 288.250217 
L 1106.498876 290.178726 
L 1109.286089 287.338827 
L 1112.073302 285.840882 
L 1114.860514 279.757275 
L 1117.647727 261.384942 
L 1117.647727 261.384942 
" clip-path="url(#p18ff4a0f14)" style="fill: none; stroke: #1f77b4; stroke-width: 1.5; stroke-linecap: square"/>
   </g>
   <g id="patch_3">
    <path d="M 52.375 838.8 
L 52.375 7.2 
" style="fill: none; stroke: #000000; stroke-width: 0.8; stroke-linejoin: miter; stroke-linecap: square"/>
   </g>
   <g id="patch_4">
    <path d="M 1168.375 838.8 
L 1168.375 7.2 
" style="fill: none; stroke: #000000; stroke-width: 0.8; stroke-linejoin: miter; stroke-linecap: square"/>
   </g>
   <g id="patch_5">
    <path d="M 52.375 838.8 
L 1168.375 838.8 
" style="fill: none; stroke: #000000; stroke-width: 0.8; stroke-linejoin: miter; stroke-linecap: square"/>
   </g>
   <g id="patch_6">
    <path d="M 52.375 7.2 
L 1168.375 7.2 
" style="fill: none; stroke: #000000; stroke-width: 0.8; stroke-linejoin: miter; stroke-linecap: square"/>
   </g>
  </g>
 </g>
 <defs>
  <clipPath id="p18ff4a0f14">
   <rect x="52.375" y="7.2" width="1116" height="831.6"/>
  </clipPath>
 </defs>
</svg>
